<?xml version="1.0"?><!DOCTYPE svg  PUBLIC '-//W3C//DTD SVG 1.1//EN'  'http://www.w3.org/Graphics/SVG/1.1/DTD/svg11.dtd'><svg height="15.6158mm" style="shape-rendering:geometricPrecision; text-rendering:geometricPrecision; image-rendering:optimizeQuality; fill-rule:evenodd; clip-rule:evenodd" version="1.1" viewBox="0 0 1367 1562" width="13.6652mm" xml:space="preserve" xmlns="http://www.w3.org/2000/svg" xmlns:xlink="http://www.w3.org/1999/xlink"><defs><style type="text/css">
   <![CDATA[
    .fil0 {fill:#E62129}
    .fil2 {fill:#1D1819}
    .fil4 {fill:#990000}
    .fil3 {fill:#990000}
    .fil5 {fill:#F98812}
    .fil1 {fill:#F98812}
   ]]>
  </style></defs><g id="Layer_x0020_1"><g id="_1040153136"><rect class="fil0" height="97.6415" width="780.786" x="293"/><rect class="fil0" height="97.5262" width="976.069" x="195" y="98"/><rect class="fil0" height="97.6415" width="195.283" x="195" y="195"/><rect class="fil0" height="97.6415" width="195.168" x="976" y="195"/><rect class="fil0" height="195.168" width="97.6415" x="293" y="293"/><rect class="fil0" height="195.168" width="97.5262" x="390" y="390"/><rect class="fil0" height="195.168" width="97.6415" x="976" y="293"/><rect class="fil0" height="195.168" width="97.5262" x="879" y="390"/><rect class="fil0" height="97.6415" width="780.786" x="293" y="586"/><rect class="fil0" height="97.5262" width="585.503" x="391" y="683"/><rect class="fil0" height="390.451" width="97.5262" x="98" y="488"/><rect class="fil0" height="97.1804" width="97.6415" x="195" y="781"/><rect class="fil0" height="390.335" width="97.6415" y="683"/><rect class="fil0" height="390.451" width="97.5262" x="1171" y="488"/><rect class="fil0" height="97.1804" width="97.6415" x="1074" y="781"/><rect class="fil0" height="390.335" width="97.6415" x="1269" y="683"/><rect class="fil1" height="292.809" width="97.6415" x="195" y="293"/><rect class="fil1" height="97.6415" width="97.6415" x="293" y="488"/><rect class="fil0" height="195.168" width="97.6415" x="976" y="293"/><rect class="fil1" height="292.809" width="97.6415" x="1074" y="293"/><rect class="fil1" height="97.6415" width="97.6415" x="976" y="488"/><rect class="fil1" height="195.283" width="97.5262" x="390" y="195"/><rect class="fil1" height="195" width="198" x="583" y="195"/><rect class="fil1" height="195.283" width="99.1401" x="877" y="195"/><rect class="fil1" height="195" width="391" x="488" y="390"/><rect class="fil2" height="195.283" width="94.9901" x="488" y="195"/><rect class="fil2" height="195.283" width="96.1429" x="781" y="195"/><rect class="fil3" height="195.629" width="97.6415" x="195" y="586"/><rect class="fil4" height="292.348" width="97.6415" x="293" y="684"/><rect class="fil4" height="293" width="195" x="390" y="781"/><rect class="fil4" height="195.629" width="97.7568" x="1074" y="586"/><rect class="fil4" height="292.809" width="97.5262" x="976" y="684"/><rect class="fil4" height="293" width="195" x="781" y="781"/><rect class="fil4" height="195" width="195" x="586" y="781"/><rect class="fil1" height="97.5262" width="195.168" y="1171"/><rect class="fil1" height="97.6415" width="292.809" y="1074"/><rect class="fil1" height="97.6415" width="292.809" x="1074" y="1074"/><rect class="fil1" height="97.5262" width="195.744" x="1171" y="1171"/><rect class="fil0" height="97.5262" width="195.168" x="586" y="976"/><rect class="fil0" height="97.6415" width="780.786" x="293" y="1074"/><rect class="fil0" height="97.5262" width="196.897" x="584" y="1171"/><rect class="fil0" height="97.6415" width="195.283" x="195" y="1269"/><rect class="fil0" height="97.6415" width="390.451" x="195" y="1366"/><rect class="fil0" height="97.5262" width="195.052" x="293" y="1464"/><rect class="fil0" height="97.5262" width="195.168" x="878" y="1464"/><rect class="fil0" height="97.6415" width="390.451" x="781" y="1366"/><rect class="fil0" height="97.6415" width="195.168" x="976" y="1269"/><rect class="fil1" height="293" width="195" x="98" y="878"/><rect class="fil1" height="293" width="195" x="1074" y="878"/><rect class="fil4" height="97.5262" width="390.451" x="195" y="1171"/><rect class="fil4" height="97.6415" width="390.451" x="781" y="1171"/><rect class="fil4" height="97.6415" width="585.618" x="390" y="1269"/><rect class="fil5" height="97.6415" width="97.6415" x="293" y="976"/><rect class="fil5" height="97.1804" width="97.5262" x="976" y="976"/></g></g></svg>